<?xml version="1.0" encoding="utf-8"?>
<!-- Generator: Adobe Illustrator 22.1.0, SVG Export Plug-In . SVG Version: 6.00 Build 0)  -->
<svg version="1.1" id="Layer_1" xmlns="http://www.w3.org/2000/svg" xmlns:xlink="http://www.w3.org/1999/xlink"
	 viewBox="0 0 512 512" xml:space="preserve">
<style type="text/css">
</style>
<g>
	<path class="st0" 
		d="M384,20c0.3,0,0.6,0,0.9,0.1l104,24c1.8,0.4,3.1,2,3.1,3.9c0,60-11.7,118.2-34.9,172.9
		c-22.4,52.9-54.4,100.3-95.2,141.1c-40.8,40.8-88.3,72.8-141.1,95.1C166,480.3,107.9,492,48,492c-1.9,0-3.5-1.3-3.9-3.1l-24-104
		c-0.4-1.9,0.6-3.9,2.5-4.8l111.9-48c0.5-0.2,1-0.3,1.5-0.3c1.2,0,2.3,0.5,3.1,1.5l49.6,60.6l9.9,12.1l14.1-6.6
		c40.9-19.2,77.9-45.3,110.1-77.6c31.9-32,57.7-68.7,76.7-109.2l6.6-14.1l-12.1-9.9L333.5,139l-0.1,0l-0.1,0c-1.3-1.1-1.8-3-1.1-4.6
		l48-111.9C381,20.7,382.7,20,384,20 M384,0c-9.4,0-18.3,5.6-22.1,14.5l-48,112c-4.2,9.8-1.4,21.3,6.9,28l60.6,49.6
		c-36,76.7-98.9,140.5-177.2,177.2l-49.6-60.6c-4.7-5.7-11.6-8.8-18.6-8.8c-3.2,0-6.4,0.6-9.4,1.9l-112,48
		c-10.7,4.7-16.6,16.3-14,27.6l24,104C27.1,504.2,36.7,512,48,512c256.1,0,464-207.5,464-464c0-11.2-7.7-20.9-18.6-23.4l-104-24
		C387.6,0.2,385.8,0,384,0L384,0z"
		stroke="#012F57"
		stroke-width="5%"
	/>
</g>
</svg>

